<?xml version="1.0" encoding="utf-8"?>
<!-- Generator: Adobe Illustrator 15.1.0, SVG Export Plug-In . SVG Version: 6.00 Build 0)  -->
<!DOCTYPE svg PUBLIC "-//W3C//DTD SVG 1.1//EN" "http://www.w3.org/Graphics/SVG/1.1/DTD/svg11.dtd">
<svg version="1.1" id="Capa_1" xmlns="http://www.w3.org/2000/svg" xmlns:xlink="http://www.w3.org/1999/xlink" x="0px" y="0px"
	 width="391px" height="60px" viewBox="0 0 391 60" enable-background="new 0 0 391 60" xml:space="preserve">
<g>
	<g>
		<path d="M26.964,11.126c0.686-1.744,0.935-2.055,1.309-2.055c0.561,0,0.748,0.747,1.31,1.93
			c0.998,2.242,9.788,24.099,13.155,32.132c1.995,4.732,3.491,5.417,4.676,5.791c0.811,0.249,1.621,0.312,2.182,0.312
			c0.312,0,0.686,0.124,0.686,0.436s-0.624,0.437-1.247,0.437c-0.811,0-4.863,0-8.666-0.125c-1.06-0.063-1.933-0.063-1.933-0.374
			c0-0.249,0.125-0.249,0.374-0.373c0.312-0.125,0.873-0.561,0.499-1.433l-4.925-12.143c-0.125-0.249-0.188-0.311-0.499-0.311
			H21.228c-0.249,0-0.436,0.125-0.561,0.436l-3.117,8.469c-0.499,1.308-0.811,2.615-0.811,3.549c0,1.059,0.935,1.433,1.871,1.433
			h0.499c0.437,0,0.561,0.187,0.561,0.436c0,0.312-0.312,0.437-0.811,0.437c-1.309,0-4.302-0.188-4.925-0.188
			c-0.561,0-3.304,0.188-5.549,0.188c-0.686,0-1.06-0.125-1.06-0.437c0-0.249,0.25-0.436,0.499-0.436
			c0.374,0,1.185-0.063,1.621-0.125c2.494-0.312,3.554-2.18,4.614-4.856L26.964,11.126z M33.074,33.17
			c0.25,0,0.25-0.125,0.187-0.374l-5.424-14.509c-0.312-0.81-0.624-0.81-0.935,0L21.79,32.797c-0.063,0.249,0,0.374,0.187,0.374
			H33.074z"/>
	</g>
	<g>
		<path d="M56.195,45.127c-5.362-4.607-6.671-10.648-6.671-15.692c0-3.549,1.309-9.714,6.172-14.447
			C59,11.812,63.988,9.321,72.405,9.321c2.182,0,5.3,0.187,7.98,0.623c2.058,0.374,3.803,0.747,5.611,0.81
			c0.561,0,0.686,0.249,0.686,0.561c0,0.436-0.125,1.059-0.25,2.989c-0.063,1.744-0.063,4.67-0.125,5.417
			c-0.062,0.81-0.312,1.121-0.623,1.121c-0.375,0-0.437-0.374-0.437-1.121c0-2.055-0.873-4.172-2.307-5.293
			c-1.933-1.619-5.923-2.927-10.786-2.927c-7.045,0-10.412,1.868-12.345,3.674c-4.052,3.736-4.925,8.469-4.925,13.824
			c0,10.15,8.043,19.18,19.764,19.18c4.115,0,6.858-0.312,9.041-2.491c1.185-1.183,1.933-3.425,2.12-4.421
			c0.125-0.561,0.187-0.747,0.561-0.747c0.25,0,0.499,0.373,0.499,0.747c0,0.373-0.749,4.981-1.31,6.787
			c-0.312,0.997-0.437,1.184-1.372,1.557c-2.245,0.872-6.359,1.184-9.913,1.184C66.046,50.794,60.497,48.863,56.195,45.127z"/>
	</g>
	<g>
		<path d="M115.165,34.727c0,5.107,0,9.279,0.249,11.458c0.187,1.557,0.437,2.553,2.12,2.802c0.748,0.125,1.995,0.249,2.494,0.249
			c0.374,0,0.437,0.249,0.437,0.437c0,0.249-0.25,0.436-0.873,0.436c-2.993,0-6.484-0.187-6.796-0.187
			c-0.249,0-4.052,0.187-5.673,0.187c-0.624,0-0.873-0.124-0.873-0.436c0-0.188,0.125-0.374,0.437-0.374
			c0.499,0,1.122-0.124,1.621-0.249c1.122-0.249,1.434-1.308,1.621-2.864c0.25-2.18,0.25-6.352,0.25-11.458v-22.23l-7.918,0.125
			c-3.429,0.062-4.738,0.436-5.549,1.681c-0.624,0.934-0.686,1.308-0.873,1.681c-0.125,0.436-0.312,0.499-0.561,0.499
			c-0.125,0-0.374-0.125-0.374-0.436c0-0.561,1.123-5.293,1.185-5.729c0.125-0.312,0.374-0.996,0.561-0.996
			c0.374,0,0.936,0.436,2.432,0.623c1.559,0.187,3.679,0.249,4.302,0.249h20.699c1.808,0,3.055-0.125,3.928-0.249
			c0.811-0.125,1.31-0.249,1.559-0.249c0.25,0,0.25,0.311,0.25,0.623c0,1.619-0.187,5.417-0.187,6.041
			c0,0.436-0.25,0.685-0.499,0.685c-0.25,0-0.375-0.187-0.437-0.934l-0.063-0.561c-0.187-1.619-1.372-2.802-6.609-2.927
			l-6.858-0.125V34.727z"/>
	</g>
	<g>
		<path d="M205.991,43.196c3.18-7.099,10.35-25.158,11.534-28.956c0.25-0.81,0.499-1.557,0.499-1.993
			c0-0.436-0.187-0.934-0.748-1.121c-0.624-0.187-1.247-0.187-1.871-0.187c-0.312,0-0.624-0.187-0.624-0.436
			c0-0.312,0.374-0.436,1.247-0.436c2.182,0,4.676,0.125,5.362,0.125c0.312,0,2.681-0.125,4.302-0.125
			c0.562,0,0.873,0.125,0.873,0.374s-0.187,0.498-0.624,0.498c-0.374,0-1.621,0-2.619,0.623c-0.748,0.498-1.621,1.245-3.055,4.857
			c-0.624,1.495-3.305,7.846-6.11,14.322c-3.367,7.722-5.798,13.451-7.045,16.066c-1.497,3.177-1.808,3.985-2.369,3.985
			c-0.624,0-0.998-0.685-2.058-3.237l-13.467-32.444c-1.247-2.989-1.995-3.549-3.803-3.985c-0.873-0.187-1.808-0.187-2.12-0.187
			s-0.437-0.311-0.437-0.498c0-0.311,0.561-0.374,1.434-0.374c2.619,0,5.736,0.125,6.422,0.125c0.561,0,2.993-0.125,5.112-0.125
			c0.998,0,1.497,0.125,1.497,0.374s-0.187,0.498-0.561,0.498c-0.624,0-1.497,0.063-1.995,0.25c-0.562,0.249-0.624,0.56-0.624,0.934
			c0,0.685,0.686,2.304,1.496,4.421L205.991,43.196z"/>
	</g>
	<g>
		<path d="M238.142,11.126c0.686-1.744,0.935-2.055,1.309-2.055c0.561,0,0.748,0.747,1.31,1.93
			c0.998,2.242,9.789,24.099,13.155,32.131c1.995,4.732,3.491,5.418,4.676,5.792c0.811,0.249,1.621,0.311,2.182,0.311
			c0.312,0,0.686,0.125,0.686,0.437s-0.624,0.436-1.247,0.436c-0.811,0-4.863,0-8.667-0.124c-1.06-0.063-1.933-0.063-1.933-0.374
			c0-0.249,0.125-0.249,0.374-0.374c0.312-0.124,0.873-0.561,0.499-1.432l-4.926-12.143c-0.125-0.249-0.187-0.311-0.499-0.311
			h-12.657c-0.249,0-0.436,0.125-0.561,0.436l-3.117,8.469c-0.499,1.308-0.811,2.615-0.811,3.55c0,1.059,0.935,1.432,1.871,1.432
			h0.499c0.437,0,0.561,0.188,0.561,0.437c0,0.312-0.312,0.436-0.811,0.436c-1.309,0-4.302-0.187-4.925-0.187
			c-0.561,0-3.304,0.187-5.549,0.187c-0.686,0-1.06-0.124-1.06-0.436c0-0.249,0.25-0.437,0.499-0.437
			c0.374,0,1.185-0.062,1.621-0.124c2.494-0.312,3.554-2.18,4.613-4.857L238.142,11.126z M244.251,33.17
			c0.25,0,0.25-0.125,0.187-0.374l-5.424-14.509c-0.312-0.81-0.624-0.81-0.935,0l-5.112,14.509c-0.063,0.249,0,0.374,0.187,0.374
			H244.251z"/>
	</g>
	<g>
		<path d="M273.087,34.853c0,7.784,0.125,10.96,1.122,11.894c0.873,0.872,2.993,1.246,7.294,1.246c2.868,0,5.3-0.063,6.609-1.619
			c0.686-0.81,1.122-1.931,1.31-2.989c0.062-0.374,0.249-0.686,0.561-0.686c0.25,0,0.374,0.249,0.374,0.81s-0.374,3.736-0.811,5.293
			c-0.374,1.246-0.561,1.433-3.491,1.433c-3.928,0-6.983-0.063-9.54-0.187c-2.494-0.063-4.364-0.125-5.985-0.125
			c-0.249,0-1.185,0-2.244,0.063c-1.123,0.063-2.307,0.125-3.18,0.125c-0.562,0-0.873-0.125-0.873-0.437
			c0-0.187,0.125-0.436,0.437-0.436c0.499,0,1.185-0.125,1.683-0.249c1.06-0.249,1.185-1.246,1.434-2.803
			c0.312-2.179,0.312-6.352,0.312-11.458v-9.34c0-8.22,0-9.714-0.125-11.396c-0.125-1.806-0.437-2.677-2.245-2.927
			c-0.436-0.062-1.372-0.125-1.87-0.125c-0.187,0-0.437-0.249-0.437-0.436c0-0.312,0.25-0.436,0.873-0.436
			c2.494,0,5.923,0.125,6.234,0.125c0.25,0,4.365-0.125,6.048-0.125c0.561,0,0.873,0.125,0.873,0.436
			c0,0.187-0.25,0.374-0.437,0.374c-0.374,0-1.185,0.062-1.808,0.125c-1.621,0.312-1.933,1.121-2.058,2.989
			c-0.062,1.682-0.062,3.176-0.062,11.396V34.853z"/>
	</g>
	<g>
		<path d="M315.552,9.321c12.345,0,21.696,7.535,21.696,19.864c0,11.831-8.791,21.607-22.009,21.607
			c-15.025,0-21.447-11.271-21.447-20.798C293.792,21.464,300.401,9.321,315.552,9.321z M316.798,48.614
			c4.926,0,14.839-2.615,14.839-17.934c0-12.704-7.73-19.366-16.397-19.366c-9.165,0-15.773,5.729-15.773,17.249
			C299.466,40.893,306.885,48.614,316.798,48.614z"/>
	</g>
	<g>
		<path d="M347.006,25.387c0-8.22,0-9.714-0.125-11.396c-0.125-1.806-0.437-2.677-2.245-2.927c-0.436-0.062-1.371-0.125-1.87-0.125
			c-0.187,0-0.437-0.249-0.437-0.436c0-0.312,0.25-0.436,0.873-0.436c2.494,0,6.173,0.125,6.484,0.125
			c0.561,0,5.175-0.125,6.858-0.125c3.491,0,7.356,0.312,10.225,2.304c1.372,0.996,3.803,3.549,3.803,7.223
			c0,3.923-1.62,7.722-6.733,12.081c4.489,5.604,8.293,10.399,11.473,13.7c2.93,2.989,4.738,3.487,6.109,3.674
			c1.061,0.187,1.621,0.187,1.933,0.187c0.313,0,0.499,0.249,0.499,0.437c0,0.312-0.312,0.436-1.31,0.436h-3.429
			c-3.117,0-4.489-0.312-5.86-1.059c-2.369-1.245-4.364-3.799-7.482-7.784c-2.307-2.864-4.738-6.289-5.923-7.721
			c-0.249-0.249-0.374-0.311-0.748-0.311l-6.982-0.125c-0.25,0-0.374,0.125-0.374,0.436v1.246c0,5.105,0,9.216,0.249,11.396
			c0.188,1.557,0.499,2.553,2.183,2.802c0.748,0.125,1.933,0.249,2.431,0.249c0.375,0,0.437,0.249,0.437,0.437
			c0,0.249-0.249,0.436-0.872,0.436c-2.993,0-6.484-0.187-6.734-0.187c-0.062,0-3.74,0.187-5.424,0.187
			c-0.562,0-0.873-0.124-0.873-0.436c0-0.188,0.125-0.437,0.437-0.437c0.499,0,1.185-0.124,1.684-0.249
			c1.06-0.249,1.185-1.245,1.434-2.802c0.313-2.18,0.313-6.352,0.313-11.458V25.387z M351.744,29.871
			c0,0.312,0.124,0.498,0.374,0.685c0.811,0.436,3.616,0.81,6.048,0.81c1.309,0,2.806-0.063,4.114-0.934
			c1.871-1.246,3.305-4.048,3.305-8.095c0-6.601-3.616-10.399-9.477-10.399c-1.621,0-3.367,0.187-3.928,0.312
			c-0.25,0.125-0.437,0.311-0.437,0.623V29.871z"/>
	</g>
	<g>
		<path d="M148.571,24.971c7.629,0,13.408,4.63,13.408,12.208c0,7.271-5.433,13.28-13.601,13.28
			c-9.286,0-13.254-6.927-13.254-12.782C135.125,32.433,139.209,24.971,148.571,24.971z M149.342,49.118
			c3.044,0,9.17-1.607,9.17-11.021c0-7.807-4.777-11.901-10.133-11.901c-5.664,0-9.748,3.521-9.748,10.6
			C138.631,44.373,143.216,49.118,149.342,49.118z"/>
	</g>
	<g>
		<path d="M166.344,35.145c0-4.951,0-5.851-0.077-6.864c-0.077-1.087-0.27-1.613-1.387-1.763c-0.27-0.038-0.848-0.075-1.156-0.075
			c-0.116,0-0.27-0.15-0.27-0.262c0-0.188,0.154-0.263,0.539-0.263c1.541,0,3.66,0.075,3.853,0.075c0.655,0,8.014,0.037,8.784,0
			c0.655-0.038,1.233-0.038,1.542-0.15c0.192-0.037,0.347-0.188,0.462-0.188c0.154,0,0.231,0.15,0.231,0.3
			c0,0.225-0.154,0.6-0.27,1.5c-0.039,0.3-0.077,1.726-0.154,2.101c-0.039,0.15-0.154,0.337-0.308,0.337
			c-0.154,0-0.27-0.15-0.27-0.375c0-0.263-0.115-0.788-0.308-1.2c-0.192-0.413-1.001-0.938-2.312-0.938l-5.548-0.075
			c-0.192,0-0.27,0.075-0.27,0.337v8.702c0,0.188,0,0.3,0.231,0.3l4.624-0.037c0.578,0,1.079,0,1.541-0.038
			c0.809-0.075,1.271-0.188,1.58-0.563c0.154-0.188,0.308-0.338,0.424-0.338c0.154,0,0.192,0.113,0.192,0.263
			c0,0.188-0.231,0.712-0.308,1.763c-0.077,0.638-0.116,1.913-0.116,2.138c0,0.3-0.077,0.638-0.308,0.638
			c-0.193,0-0.231-0.15-0.231-0.3c-0.039-0.338-0.077-0.788-0.231-1.163c-0.154-0.45-0.693-0.862-1.734-1.012
			c-0.848-0.113-4.854-0.075-5.433-0.075c-0.192,0-0.231,0.075-0.231,0.299v2.551c0,3.15,0,5.663,0.154,6.901
			c0.115,0.938,0.308,1.538,1.233,1.688c0.5,0.075,1.233,0.15,1.541,0.15c0.192,0,0.27,0.149,0.27,0.263
			c0,0.149-0.154,0.262-0.54,0.262c-1.888,0-4.084-0.112-4.238-0.112c-0.193,0-2.312,0.112-3.352,0.112
			c-0.347,0-0.54-0.074-0.54-0.262c0-0.113,0.077-0.263,0.27-0.263c0.308,0,0.732-0.112,1.04-0.15
			c0.655-0.112,0.732-0.75,0.886-1.688c0.192-1.313,0.192-3.826,0.192-6.901V35.145z"/>
	</g>
</g>
</svg>
